<svg width="194" height="74" viewBox="0 0 194 74" fill="none" xmlns="http://www.w3.org/2000/svg">
<g clip-path="url(#clip0_103_759)">
<path d="M86.1288 24.2222V6.27783H97.1191V8.20504H88.3277V14.2018H96.5338V16.129H88.3277V22.295H97.2414V24.2222H86.1288Z" fill="#0A1CF5"/>
<path d="M99.9032 6.27783H102.541L108.72 21.1628H108.939L115.118 6.27783H117.841V24.2222H115.68V10.5901H115.508L109.781 24.2222H107.803L102.15 10.5901H101.978V24.2222H99.9019V6.27783H99.9032Z" fill="#0A1CF5"/>
<path d="M121.064 24.2222V6.27783H132.055V8.20504H123.263V14.2018H131.469V16.129H123.263V22.295H132.177V24.2222H121.064Z" fill="#0A1CF5"/>
<path d="M135.596 24.2222H133.276L139.967 6.27783H142.237L148.904 24.2222H146.608L141.162 9.12076H141.016L135.594 24.2222H135.596ZM136.45 17.214H145.754V19.1412H136.45V17.214Z" fill="#0A1CF5"/>
<path d="M88.3263 29.105V47.0494H86.1288V29.105H88.3263Z" fill="#0A1CF5"/>
<path d="M93.3572 38.9564V47.0496H91.2808V33.5854H93.2827V35.7055H93.4783C93.7962 35.0154 94.2804 34.4605 94.9309 34.0433C95.5827 33.6261 96.4247 33.4175 97.4583 33.4175C98.3788 33.4175 99.1836 33.6025 99.8766 33.9711C100.568 34.3411 101.108 34.8999 101.494 35.6517C101.881 36.4021 102.074 37.3519 102.074 38.4998V47.0509H99.9977V38.6455C99.9977 37.5933 99.717 36.7694 99.1556 36.1712C98.5943 35.573 97.8281 35.2738 96.8597 35.2738C96.1919 35.2738 95.5933 35.4182 95.0652 35.7068C94.5358 35.9954 94.1194 36.4139 93.8135 36.9597C93.5089 37.5054 93.3559 38.1719 93.3559 38.959L93.3572 38.9564Z" fill="#0A1CF5"/>
<path d="M106.839 38.9564V47.0496H104.762V33.5854H106.764V35.7055H106.96C107.278 35.0154 107.762 34.4605 108.413 34.0433C109.064 33.6261 109.906 33.4175 110.94 33.4175C111.861 33.4175 112.665 33.6025 113.358 33.9711C114.05 34.3411 114.59 34.8999 114.976 35.6517C115.363 36.4021 115.556 37.3519 115.556 38.4998V47.0509H113.479V38.6455C113.479 37.5933 113.199 36.7694 112.637 36.1712C112.076 35.573 111.31 35.2738 110.341 35.2738C109.674 35.2738 109.075 35.4182 108.547 35.7068C108.018 35.9954 107.601 36.4139 107.295 36.9597C106.991 37.5054 106.838 38.1719 106.838 38.959L106.839 38.9564Z" fill="#0A1CF5"/>
<path d="M123.763 47.3382C122.534 47.3382 121.455 47.0496 120.527 46.4711C119.598 45.8925 118.876 45.0817 118.36 44.0388C117.843 42.9958 117.584 41.7823 117.584 40.4021C117.584 39.022 117.843 37.7704 118.36 36.7235C118.877 35.6753 119.6 34.8632 120.527 34.2847C121.454 33.7061 122.533 33.4175 123.763 33.4175C124.994 33.4175 126.083 33.7061 127.012 34.2847C127.94 34.8632 128.664 35.6753 129.185 36.7235C129.707 37.7717 129.967 38.9984 129.967 40.4021C129.967 41.8059 129.707 42.9958 129.185 44.0388C128.664 45.083 127.94 45.8938 127.012 46.4711C126.083 47.0483 125 47.3382 123.763 47.3382ZM123.763 45.4845C124.708 45.4845 125.481 45.2483 126.083 44.7734C126.686 44.2998 127.133 43.6754 127.427 42.9013C127.719 42.126 127.866 41.2942 127.866 40.4021C127.866 39.51 127.719 38.652 127.427 37.8728C127.134 37.0935 126.686 36.4664 126.083 35.9875C125.481 35.51 124.708 35.2712 123.763 35.2712C122.819 35.2712 122.07 35.51 121.467 35.9875C120.865 36.4651 120.418 37.0935 120.124 37.8728C119.831 38.652 119.685 39.4943 119.685 40.4021C119.685 41.31 119.831 42.126 120.124 42.9013C120.416 43.6767 120.865 44.2998 121.467 44.7734C122.07 45.247 122.835 45.4845 123.763 45.4845Z" fill="#0A1CF5"/>
<path d="M142.642 33.5854L137.611 47.0497H135.461L130.43 33.5854H132.701L136.462 44.3274H136.608L140.368 33.5854H142.639H142.642Z" fill="#0A1CF5"/>
<path d="M147.843 47.3633C146.98 47.3633 146.195 47.2006 145.486 46.8753C144.777 46.5499 144.215 46.0789 143.8 45.4597C143.385 44.8418 143.178 44.0953 143.178 43.2203C143.178 42.4489 143.332 41.8257 143.642 41.3482C143.952 40.8706 144.364 40.4928 144.882 40.216C145.399 39.9392 145.969 39.7319 146.591 39.5955C147.214 39.459 147.843 39.3501 148.477 39.2701C149.307 39.1665 149.982 39.0851 150.498 39.0287C151.015 38.9723 151.393 38.8765 151.634 38.7401C151.873 38.6036 151.994 38.3714 151.994 38.0421V37.97C151.994 37.1107 151.756 36.4429 151.28 35.9654C150.804 35.4878 150.082 35.2491 149.113 35.2491C148.145 35.2491 147.339 35.4642 146.769 35.8932C146.2 36.3222 145.801 36.7827 145.572 37.272L143.57 36.5741C143.928 35.7555 144.407 35.1166 145.005 34.6587C145.604 34.2008 146.255 33.8794 146.96 33.6958C147.663 33.5108 148.358 33.4189 149.041 33.4189C149.48 33.4189 149.986 33.4688 150.555 33.5698C151.124 33.6708 151.681 33.8794 152.222 34.1956C152.763 34.5131 153.212 34.9906 153.565 35.6282C153.919 36.2658 154.096 37.1199 154.096 38.1878V47.0511H151.996V45.221H151.899C151.76 45.5096 151.524 45.8218 151.191 46.1537C150.857 46.487 150.415 46.7716 149.866 47.0091C149.317 47.2466 148.642 47.3646 147.846 47.3646L147.843 47.3633ZM148.161 45.5083C148.991 45.5083 149.691 45.3482 150.261 45.0268C150.831 44.7054 151.263 44.2908 151.555 43.7805C151.848 43.2701 151.994 42.7388 151.994 42.1852V40.2829C151.905 40.3878 151.711 40.481 151.414 40.5663C151.118 40.6502 150.776 40.725 150.389 40.7893C150.002 40.8536 149.625 40.9074 149.26 40.952C148.894 40.9966 148.6 41.0307 148.38 41.0543C147.835 41.1265 147.325 41.2406 146.854 41.398C146.382 41.5541 146.002 41.785 145.713 42.0907C145.425 42.3964 145.28 42.8136 145.28 43.3436C145.28 44.0586 145.55 44.5978 146.091 44.9638C146.632 45.3298 147.323 45.5122 148.161 45.5122V45.5083Z" fill="#0A1CF5"/>
<path d="M162.692 33.5855V35.3435H155.634V33.5855H162.692ZM157.685 30.3818H159.762V43.1953C159.762 43.8933 159.908 44.4062 160.201 44.7303C160.493 45.0543 160.957 45.2183 161.592 45.2183C161.73 45.2183 161.875 45.2104 162.026 45.1947C162.176 45.1789 162.341 45.154 162.52 45.1225L162.959 46.9776C162.764 47.0497 162.526 47.1075 162.245 47.1521C161.964 47.1967 161.681 47.2177 161.396 47.2177C160.298 47.2177 159.404 46.8963 158.716 46.2547C158.028 45.6119 157.684 44.7775 157.684 43.7503V30.3831L157.685 30.3818Z" fill="#0A1CF5"/>
<path d="M165.744 31.3461C165.337 31.3461 164.987 31.2097 164.694 30.9368C164.401 30.6639 164.255 30.3347 164.255 29.9489C164.255 29.5632 164.401 29.234 164.694 28.9611C164.987 28.6882 165.337 28.5518 165.744 28.5518C166.151 28.5518 166.5 28.6882 166.793 28.9611C167.086 29.234 167.232 29.5632 167.232 29.9489C167.232 30.3347 167.086 30.6639 166.793 30.9368C166.5 31.2097 166.151 31.3461 165.744 31.3461ZM164.694 47.0498V33.5856H166.77V47.0498H164.694Z" fill="#0A1CF5"/>
<path d="M174.975 47.3382C173.746 47.3382 172.667 47.0496 171.739 46.4711C170.81 45.8925 170.088 45.0817 169.572 44.0388C169.054 42.9958 168.796 41.7823 168.796 40.4021C168.796 39.022 169.054 37.7704 169.572 36.7235C170.089 35.6753 170.812 34.8632 171.739 34.2847C172.666 33.7061 173.745 33.4175 174.975 33.4175C176.206 33.4175 177.295 33.7061 178.224 34.2847C179.152 34.8632 179.876 35.6753 180.397 36.7235C180.919 37.7717 181.179 38.9984 181.179 40.4021C181.179 41.8059 180.919 42.9958 180.397 44.0388C179.876 45.083 179.152 45.8938 178.224 46.4711C177.295 47.0483 176.212 47.3382 174.975 47.3382ZM174.975 45.4845C175.92 45.4845 176.693 45.2483 177.295 44.7734C177.898 44.2998 178.345 43.6754 178.639 42.9013C178.931 42.126 179.078 41.2942 179.078 40.4021C179.078 39.51 178.931 38.652 178.639 37.8728C178.346 37.0935 177.898 36.4664 177.295 35.9875C176.693 35.51 175.92 35.2712 174.975 35.2712C174.031 35.2712 173.282 35.51 172.679 35.9875C172.077 36.4651 171.63 37.0935 171.336 37.8728C171.043 38.652 170.897 39.4943 170.897 40.4021C170.897 41.31 171.043 42.126 171.336 42.9013C171.628 43.6767 172.077 44.2998 172.679 44.7734C173.282 45.247 174.047 45.4845 174.975 45.4845Z" fill="#0A1CF5"/>
<path d="M185.282 38.9564V47.0496H183.205V33.5854H185.207V35.7055H185.403C185.721 35.0154 186.205 34.4605 186.855 34.0433C187.507 33.6261 188.349 33.4175 189.383 33.4175C190.303 33.4175 191.108 33.6025 191.801 33.9711C192.493 34.3411 193.033 34.8999 193.419 35.6517C193.806 36.4021 193.999 37.3519 193.999 38.4998V47.0509H191.922V38.6455C191.922 37.5933 191.642 36.7694 191.08 36.1712C190.519 35.573 189.753 35.2738 188.784 35.2738C188.116 35.2738 187.518 35.4182 186.99 35.7068C186.46 35.9954 186.044 36.4139 185.738 36.9597C185.433 37.5054 185.28 38.1719 185.28 38.959L185.282 38.9564Z" fill="#0A1CF5"/>
<path d="M86.1288 69.877V51.9326H88.3263V67.9498H96.8011V69.877H86.1288Z" fill="#0A1CF5"/>
<path d="M102.76 70.1905C101.897 70.1905 101.112 70.0278 100.403 69.7024C99.6943 69.3771 99.133 68.9061 98.718 68.2869C98.3029 67.669 98.0954 66.9225 98.0954 66.0474C98.0954 65.276 98.2497 64.6529 98.5597 64.1753C98.8696 63.6978 99.282 63.32 99.7994 63.0431C100.317 62.7663 100.886 62.559 101.509 62.4226C102.131 62.2862 102.76 62.1773 103.395 62.0972C104.225 61.9936 104.899 61.9123 105.416 61.8558C105.933 61.7994 106.311 61.7037 106.552 61.5672C106.791 61.4308 106.912 61.1986 106.912 60.8693V60.7971C106.912 59.9378 106.674 59.2701 106.198 58.7925C105.722 58.315 104.999 58.0762 104.031 58.0762C103.062 58.0762 102.256 58.2914 101.687 58.7204C101.118 59.1494 100.719 59.6098 100.49 60.0992L98.4878 59.4013C98.8457 58.5826 99.3245 57.9437 99.9231 57.4859C100.522 57.028 101.172 56.7066 101.877 56.5229C102.581 56.3379 103.275 56.2461 103.959 56.2461C104.398 56.2461 104.903 56.2959 105.473 56.397C106.042 56.498 106.598 56.7066 107.14 57.0227C107.681 57.3402 108.129 57.8178 108.483 58.4554C108.837 59.093 109.014 59.947 109.014 61.0149V69.8782H106.913V68.0481H106.816C106.678 68.3367 106.441 68.649 106.109 68.9809C105.775 69.3141 105.333 69.5988 104.784 69.8362C104.234 70.0737 103.56 70.1918 102.763 70.1918L102.76 70.1905ZM103.077 68.3354C103.907 68.3354 104.607 68.1754 105.177 67.8539C105.747 67.5325 106.179 67.1179 106.472 66.6076C106.764 66.0973 106.911 65.566 106.911 65.0123V63.11C106.822 63.215 106.627 63.3081 106.331 63.3934C106.034 63.4774 105.692 63.5522 105.305 63.6164C104.918 63.6807 104.542 63.7345 104.176 63.7791C103.81 63.8237 103.516 63.8578 103.297 63.8814C102.751 63.9536 102.242 64.0677 101.771 64.2252C101.299 64.3813 100.918 64.6122 100.629 64.9179C100.341 65.2235 100.196 65.6407 100.196 66.1707C100.196 66.8857 100.466 67.4249 101.007 67.791C101.549 68.157 102.239 68.3393 103.077 68.3393V68.3354Z" fill="#0A1CF5"/>
<path d="M117.926 70.1656C117.055 70.1656 116.355 70.0187 115.826 69.7261C115.296 69.4336 114.889 69.1004 114.605 68.7265C114.32 68.3526 114.101 68.0456 113.945 67.8055H113.7V69.877H111.698V51.9326H113.775V58.5565H113.946C114.101 58.3243 114.316 58.0252 114.594 57.6591C114.871 57.2944 115.27 56.9664 115.791 56.6778C116.313 56.3892 117.016 56.2449 117.904 56.2449C119.052 56.2449 120.061 56.5283 120.933 57.0937C121.804 57.6591 122.485 58.462 122.978 59.5024C123.471 60.5427 123.717 61.7681 123.717 63.181C123.717 64.5939 123.472 65.8363 122.984 66.8845C122.496 67.9328 121.816 68.7409 120.945 69.3116C120.073 69.881 119.068 70.167 117.929 70.167L117.926 70.1656ZM117.658 68.3119C118.529 68.3119 119.258 68.081 119.843 67.6192C120.43 67.1574 120.871 66.5369 121.168 65.7589C121.465 64.9796 121.614 64.1138 121.614 63.1574C121.614 62.201 121.467 61.3548 121.175 60.5926C120.882 59.8304 120.444 59.2243 119.862 58.7743C119.279 58.3243 118.545 58.0999 117.658 58.0999C116.77 58.0999 116.087 58.3112 115.508 58.7323C114.929 59.1534 114.493 59.7438 114.195 60.5021C113.898 61.2603 113.749 62.1459 113.749 63.1574C113.749 64.1689 113.9 65.0623 114.202 65.8363C114.502 66.6117 114.944 67.2178 115.527 67.6546C116.109 68.0928 116.818 68.3106 117.658 68.3106V68.3119Z" fill="#0A1CF5"/>
<path d="M37.5161 74.0002C37.3046 74.0002 37.1011 73.9175 36.9521 73.7693L0.234136 37.5578C0.00533886 37.3321 -0.0625021 36.9936 0.0612079 36.6998C0.184918 36.4059 0.476235 36.2144 0.798147 36.2144H74.2327C74.556 36.2144 74.8459 36.4059 74.9697 36.6998C75.0934 36.9936 75.0255 37.3321 74.7967 37.5578L38.0801 73.7693C37.9311 73.9162 37.7276 74.0002 37.5161 74.0002ZM2.72563 37.7887L37.5161 72.1005L72.3066 37.7887H2.72563Z" fill="#0000FF"/>
<path d="M74.2327 37.7888H37.5161C37.0758 37.7888 36.718 37.4359 36.718 37.0016V0.787446C36.718 0.46865 36.9122 0.182652 37.2101 0.0606435C37.5081 -0.0613648 37.8513 0.00554302 38.0801 0.231193L74.7967 36.4454C75.0255 36.671 75.0934 37.0095 74.9696 37.3033C74.8459 37.5972 74.5546 37.7888 74.2327 37.7888ZM38.3142 36.2145H72.3066L38.3142 2.68841V36.2145Z" fill="#0000FF"/>
<path d="M37.5161 74C37.3086 74 37.1037 73.92 36.9521 73.7691L0.234136 37.5563C0.00533886 37.3306 -0.0625021 36.9922 0.0612079 36.6983C0.184918 36.4044 0.476235 36.2129 0.798147 36.2129H37.5148C37.9551 36.2129 38.3129 36.5658 38.3129 37V73.2142C38.3129 73.533 38.1187 73.819 37.8207 73.941C37.7223 73.9817 37.6185 74.0013 37.5161 74.0013V74ZM2.72563 37.7872L36.718 71.3132V37.7872H2.72563Z" fill="#0000FF"/>
</g>
<defs>
<clipPath id="clip0_103_759">
<rect width="194" height="74" fill="white"/>
</clipPath>
</defs>
</svg>
